<svg width="158" height="109" viewBox="0 0 158 109" xmlns="http://www.w3.org/2000/svg" xmlns:xlink="http://www.w3.org/1999/xlink"><title>Group</title><defs><path d="M0 25.74C3.47 27.79 7.745 29 12.37 29c4.97 0 9.536-1.398 13.133-3.734L12.87 0 0 25.74z" id="a"/><mask id="b" x="-7" y="-7" width="39.503" height="43"><path fill="#fff" d="M-7-7h39.503v43H-7z"/><use xlink:href="#a"/></mask></defs><g transform="translate(0 1)" fill="none" fill-rule="evenodd"><circle stroke="#F96908" stroke-width="4" fill="#FFF" opacity=".2" cx="18" cy="8" r="5"/><circle stroke="#F96908" stroke-width="4" fill="#FFF" opacity=".2" cx="151" cy="29" r="5"/><path d="M52.017 83.981V84h69.449C130.045 84 137 77.072 137 68.526c0-6.609-4.158-12.25-10.01-14.468a22.156 22.156 0 0 0 1.786-8.744c0-12.317-10.024-22.301-22.388-22.301-4.317 0-8.35 1.217-11.769 3.326A25.595 25.595 0 0 0 72.121 13C57.99 13 46.534 24.411 46.534 38.487c0 .92.05 1.827.145 2.721C37.613 43.89 31 52.253 31 62.154c0 11.76 9.329 21.35 21.017 21.827z" stroke="#8DB0B4" stroke-width="5" stroke-linejoin="round" fill="#FFF"/><g transform="rotate(28 53.187 214.927)"><use fill="#FFF" xlink:href="#a"/><use stroke="#FFF" mask="url(#b)" stroke-width="14" stroke-linecap="round" stroke-linejoin="round" xlink:href="#a"/><use stroke="#F96908" stroke-width="4" stroke-linecap="round" stroke-linejoin="round" xlink:href="#a"/></g><path d="M101.54 18.027s-.49 4.324 1.653 8.886c2.142 4.562 6.91 7.944 6.91 7.944l5.195-1.012s-4.596-3.555-7.242-9.045-3.074-9.238-3.074-9.238l-3.442 2.465zM109.176 13.6s.485 4.044 2.628 8.606c2.142 4.562 7.383 7.99 7.383 7.99l-.376-3.436s.41-1.395-2.235-6.885c-2.646-5.49-2.927-9.554-2.927-9.554l-4.473 3.278z" fill="#F96908"/><circle fill="#8DB0B4" cx="70" cy="49" r="4"/><circle fill="#8DB0B4" cx="99" cy="49" r="4"/><path d="M91.918 64.22a12.619 12.619 0 0 1-6.792 1.97A12.62 12.62 0 0 1 78 64" stroke="#8DB0B4" stroke-width="5" stroke-linecap="round"/><path d="M11 97v-5.005A1.997 1.997 0 0 0 9 90c-1.112 0-2 .893-2 1.995V97H1.995A1.997 1.997 0 0 0 0 99c0 1.112.893 2 1.995 2H7v5.005c0 1.102.895 1.995 2 1.995 1.112 0 2-.893 2-1.995V101h5.005A1.997 1.997 0 0 0 18 99c0-1.112-.893-2-1.995-2H11zM153.556 89.728l3.54-3.54c.779-.779.777-2.043-.004-2.824a1.993 1.993 0 0 0-2.825-.004l-3.54 3.54-3.538-3.54a1.997 1.997 0 0 0-2.825.004 1.993 1.993 0 0 0-.004 2.825l3.54 3.539-3.54 3.539c-.78.78-.777 2.044.004 2.825a1.993 1.993 0 0 0 2.825.003l3.539-3.539 3.539 3.54c.78.779 2.044.777 2.825-.004a1.993 1.993 0 0 0 .003-2.825l-3.539-3.54z" fill="#F96908" opacity=".2"/></g></svg>