<svg width="187" height="154" viewBox="0 0 187 154" xmlns="http://www.w3.org/2000/svg"><title>Group</title><g transform="translate(0 2)" fill="none" fill-rule="evenodd"><circle stroke="#F96908" stroke-width="4" fill="#FFF" opacity=".2" cx="37" cy="5" r="5"/><circle stroke="#F96908" stroke-width="4" fill="#FFF" opacity=".2" cx="180" cy="43" r="5"/><path d="M52.017 127.981V128h69.449c8.579 0 15.534-6.928 15.534-15.474 0-6.609-4.158-12.25-10.01-14.468a22.156 22.156 0 0 0 1.786-8.744c0-12.317-10.024-22.301-22.388-22.301-4.317 0-8.35 1.217-11.769 3.326A25.595 25.595 0 0 0 72.121 57C57.99 57 46.534 68.411 46.534 82.487c0 .92.05 1.827.145 2.721C37.613 87.89 31 96.253 31 106.154c0 11.76 9.329 21.35 21.017 21.827z" stroke="#8DB0B4" stroke-width="5" stroke-linejoin="round" fill="#FFF"/><circle fill="#8DB0B4" cx="70" cy="93" r="4"/><ellipse fill="#8DB0B4" cx="99" cy="93" rx="4" ry="4"/><path d="M91.918 109.97a12.619 12.619 0 0 0-6.792-1.97A12.62 12.62 0 0 0 78 110.19" stroke="#8DB0B4" stroke-width="5" stroke-linecap="round"/><path d="M11 141v-5.005A1.997 1.997 0 0 0 9 134c-1.112 0-2 .893-2 1.995V141H1.995A1.997 1.997 0 0 0 0 143c0 1.112.893 2 1.995 2H7v5.005c0 1.102.895 1.995 2 1.995 1.112 0 2-.893 2-1.995V145h5.005A1.997 1.997 0 0 0 18 143c0-1.112-.893-2-1.995-2H11zM153.556 133.728l3.54-3.54c.779-.779.777-2.043-.004-2.824a1.993 1.993 0 0 0-2.825-.004l-3.54 3.54-3.538-3.54a1.997 1.997 0 0 0-2.825.004 1.993 1.993 0 0 0-.004 2.825l3.54 3.539-3.54 3.539c-.78.78-.777 2.044.004 2.825a1.993 1.993 0 0 0 2.825.003l3.539-3.539 3.539 3.54c.78.779 2.044.777 2.825-.004a1.993 1.993 0 0 0 .003-2.825l-3.539-3.54z" fill="#F96908" opacity=".2"/><path d="M119.398 69.227c2.336-1.811 3.504-3.885 3.504-6.22 0-2.36-1-4.45-3-6.273-1.999-1.823-4.235-2.734-6.707-2.734-1.117 0-2.518.404-4.204 1.213-1.994.946-2.991 1.988-2.991 3.128 0 .604.23 1.153.692 1.649a2.233 2.233 0 0 0 1.7.743c.445 0 1.203-.35 2.274-1.05 1.07-.701 1.914-1.052 2.529-1.052 1.162 0 2.281.465 3.358 1.393 1.077.929 1.615 1.923 1.615 2.982 0 .9-.735 1.909-2.205 3.025a892.949 892.949 0 0 1-4.067 2.888c-1.47 1.128-2.205 2.148-2.205 3.06 0 .615.245 1.159.735 1.632.49.472 1.06.709 1.71.709.66 0 1.264-.302 1.81-.906.605-.672 1.482-1.407 2.633-2.205l2.82-1.982zm-3.435-3.196l-2.42-3.185.066-.05c.41-.317.669-.568.775-.714-.096.132-.216.444-.216.924 0 .147.036.287.079.365-.023-.043-.117-.154-.306-.318a3.88 3.88 0 0 0-.331-.256 1.416 1.416 0 0 0-.188-.107c-.153.08-.344.194-.567.34-1.71 1.119-2.974 1.703-4.462 1.703a6.23 6.23 0 0 1-4.628-2.017C102.635 61.502 102 59.99 102 58.34c0-3.075 2.037-5.205 5.26-6.734 2.18-1.046 4.125-1.607 5.935-1.607 3.495 0 6.684 1.3 9.402 3.778 2.801 2.554 4.305 5.698 4.305 9.228 0 3.666-1.798 6.858-5.052 9.382l-.127.094c-.094.067-.998.703-2.866 2.015-.915.635-1.565 1.179-1.945 1.602-1.266 1.397-2.913 2.22-4.777 2.22-1.7 0-3.26-.647-4.487-1.83-1.25-1.206-1.957-2.777-1.957-4.51 0-2.466 1.41-4.421 3.77-6.233l.128-.094c1.333-.941 2.665-1.887 3.998-2.839.032-.023 2.376 3.218 2.376 3.218zm-4.768 15.484c.855 0 1.521-.388 2-1.162a3.62 3.62 0 0 0 .564-1.949c0-.65-.171-1.213-.513-1.692-.433-.58-1.037-.871-1.811-.871-.923 0-1.658.404-2.205 1.213a3.716 3.716 0 0 0-.684 2.154c0 .672.29 1.236.872 1.691.535.41 1.128.616 1.777.616zm0 4c-1.538 0-2.983-.5-4.246-1.468-1.522-1.194-2.403-2.903-2.403-4.84 0-1.593.48-3.101 1.37-4.393 1.279-1.891 3.244-2.973 5.519-2.973 2.014 0 3.815.867 5.066 2.546.84 1.176 1.258 2.555 1.258 4.017 0 1.447-.4 2.828-1.161 4.05-1.194 1.933-3.134 3.06-5.403 3.06z" fill="#FFF" fill-rule="nonzero"/><path d="M119.398 69.227l-2.82 1.982c-1.15.798-2.027 1.533-2.631 2.205-.547.604-1.15.906-1.812.906-.65 0-1.219-.237-1.709-.71-.49-.472-.735-1.016-.735-1.631 0-.912.735-1.932 2.205-3.06 1.356-.957 2.712-1.92 4.067-2.888 1.47-1.116 2.205-2.125 2.205-3.025 0-1.06-.538-2.053-1.615-2.982-1.077-.928-2.196-1.393-3.358-1.393-.615 0-1.459.35-2.53 1.051-1.07.701-1.828 1.051-2.272 1.051a2.233 2.233 0 0 1-1.7-.743c-.462-.496-.693-1.045-.693-1.65 0-1.139.997-2.181 2.99-3.127 1.687-.809 3.088-1.213 4.205-1.213 2.472 0 4.708.911 6.708 2.734s2.999 3.914 2.999 6.272c0 2.336-1.168 4.41-3.504 6.221zm-8.203 12.288c-.65 0-1.242-.205-1.777-.616-.581-.455-.872-1.02-.872-1.691 0-.775.228-1.493.684-2.154.547-.809 1.282-1.213 2.205-1.213.774 0 1.378.29 1.811.871.342.479.513 1.043.513 1.692a3.62 3.62 0 0 1-.564 1.949c-.479.774-1.145 1.162-2 1.162z" fill="#F36913"/></g></svg>